<svg width="100" height="100" viewBox="0 0 100 100" fill="none" xmlns="http://www.w3.org/2000/svg">
<path d="M14.3355 67.5778L23.7887 14.0231C23.8547 13.6189 24.0006 13.2319 24.2178 12.8846C24.4349 12.5374 24.719 12.2368 25.0535 12.0005C25.388 11.7642 25.7662 11.5968 26.166 11.5081C26.5659 11.4195 26.9794 11.4113 27.3824 11.484L48.9449 15.2731C49.7596 15.4254 50.482 15.8913 50.9568 16.5707C51.4316 17.25 51.6209 18.0885 51.484 18.9059L41.9918 72.7731C41.3417 76.4002 39.2977 79.6289 36.2972 81.7679C33.2966 83.907 29.578 84.7866 25.9371 84.2184C18.1637 82.9684 12.9684 75.3512 14.3355 67.5778Z" stroke="white" stroke-width="3" stroke-linecap="round" stroke-linejoin="round"/>
<path d="M46.2109 48.75L74.6875 38.3984C75.0747 38.2555 75.4863 38.1906 75.8986 38.2076C76.311 38.2246 76.7159 38.3231 77.09 38.4974C77.464 38.6718 77.7999 38.9185 78.0781 39.2233C78.3563 39.5281 78.5714 39.885 78.7109 40.2734L86.2109 60.8203C86.4876 61.5974 86.4457 62.4524 86.0944 63.1988C85.7432 63.9452 85.1111 64.5225 84.3359 64.8047L32.9297 83.5156" stroke="white" stroke-width="3" stroke-linecap="round" stroke-linejoin="round"/>
<path d="M85.9375 63.4766V81.25C85.9375 82.0788 85.6083 82.8737 85.0222 83.4597C84.4362 84.0458 83.6413 84.375 82.8125 84.375H28.125" stroke="white" stroke-width="3" stroke-linecap="round" stroke-linejoin="round"/>
<path d="M28.125 75C30.7138 75 32.8125 72.9013 32.8125 70.3125C32.8125 67.7237 30.7138 65.625 28.125 65.625C25.5362 65.625 23.4375 67.7237 23.4375 70.3125C23.4375 72.9013 25.5362 75 28.125 75Z" fill="white"/>
</svg>
